<svg height="512" viewBox="0 0 64 64" width="512" xmlns="http://www.w3.org/2000/svg"><g id="flat"><path d="m61 32a28.606 28.606 0 0 1 -.42 4.93 29 29 0 1 1 -41.58-30.85 29 29 0 0 1 23.64-1.06 28.972 28.972 0 0 1 18.36 26.98z" fill="#4da6ea"/><path d="m60.7 27.82-2.68-1.37-2 2-3-3 1-4-5-1-4 2-3-3-2-3 .8-3.72 3.2-3.28-3-1 1.62-3.43a28.985 28.985 0 0 1 18.06 22.8z" fill="#c8d952"/><path d="m60.58 36.93a29 29 0 0 1 -16.58 21.47v-4.4l-2.11-3.21-4-2v-6l5-2 2-2-2-2 5-3 4 1 4 2z" fill="#c8d952"/><path d="m34 22.91-6-1-3 1-2-2-1-3-4 2 1 3 2 1-2 3-3-1h-3v3l1 1 3 1 1 3-4 2-4-2-2 3-2-1-2.62.78a29.011 29.011 0 0 1 15.62-30.61v2.83l2 1h3l2-2 3 1 2 3-3 3 1 3h3z" fill="#c8d952"/><path d="m27 34-2 3h-2l-3 2 2 3 3 2v3l4 1 2-3-1-4 3-3-2-4z" fill="#c8d952"/><g fill="#8ec13f"><path d="m45.052 51.316-.869-2.607-3.63-1.809a1 1 0 0 1 -.553-.9v-2a1 1 0 0 1 .758-.97l3.625-.906 1.711-2.567.958-2.873a1 1 0 0 1 .6-.622 1.006 1.006 0 0 1 .862.081l4.763 2.857h2.723v2h-3a1 1 0 0 1 -.515-.143l-3.93-2.357-.607 1.817a.944.944 0 0 1 -.116.239l-2 3a1 1 0 0 1 -.59.415l-3.242.81v.6l3.447 1.723a1 1 0 0 1 .5.579l1 3z"/><path d="m21.758 14.97-4-1a1 1 0 0 1 -.653-.523l-1-2 1.79-.894.793 1.589 3.554.888z"/><path d="m10.014 31.165-1-6a1 1 0 0 1 .279-.872l3-3a1 1 0 0 1 .707-.293h3v2h-2.586l-2.343 2.343.915 5.492z"/><path d="m13 16h2v2h-2z"/><path d="m24 13h2v2h-2z"/><path d="m47 44h2v2h-2z"/><path d="m51 46h2v2h-2z"/></g><path d="m61 17v-1a2.768 2.768 0 0 0 -3-3h-1c-.593-1.9-2-3-5-3-2.227 0-4.518.932-5 3h-1a2.919 2.919 0 0 0 -3 3v1z" fill="#cdeef6"/><path d="m28 56v-1a3.883 3.883 0 0 0 -4-4 7.228 7.228 0 0 0 -1.726.225 6.483 6.483 0 0 0 -6.231-4.225 6.427 6.427 0 0 0 -6.343 4.642 5.966 5.966 0 0 0 -2.7-.642 3.883 3.883 0 0 0 -4 4v1z" fill="#cdeef6"/></g></svg>